<svg width="96" height="96" viewBox="0 0 96 96" fill="none" xmlns="http://www.w3.org/2000/svg">
<path fill-rule="evenodd" clip-rule="evenodd" d="M63 54C74.598 54 84 44.598 84 33C84 21.402 74.598 12 63 12C51.402 12 42 21.402 42 33C42 36.2405 42.734 39.3096 44.0448 42.0501C44.3587 42.017 44.6773 42 45 42C49.9706 42 54 46.0294 54 51C54 51.3227 53.983 51.6413 53.9499 51.9552C56.6904 53.266 59.7595 54 63 54ZM51.3593 57.3687C54.884 59.0554 58.8317 60 63 60C77.9117 60 90 47.9117 90 33C90 18.0883 77.9117 6 63 6C48.0883 6 36 18.0883 36 33C36 37.1683 36.9446 41.116 38.6313 44.6407C37.0054 46.2691 36 48.5171 36 51C36 52.3894 36.3149 53.7053 36.8771 54.8802L35.1213 56.636C33.9497 57.8076 32.0503 57.8076 30.8787 56.636L21.364 47.1213C17.8492 43.6066 12.1508 43.6066 8.63604 47.1213L8.12132 47.636C4.6066 51.1508 4.6066 56.8492 8.12132 60.364L23.1213 75.364C23.6839 75.9266 24 76.6896 24 77.4853V87V90H30V87V77.4853C30 75.0983 29.0518 72.8091 27.364 71.1213L12.364 56.1213C11.1924 54.9497 11.1924 53.0503 12.364 51.8787L12.8787 51.364C14.0503 50.1924 15.9497 50.1924 17.1213 51.364L26.636 60.8787C30.1508 64.3934 35.8492 64.3934 39.364 60.8787L41.1198 59.1229C42.2947 59.6851 43.6106 60 45 60C47.4829 60 49.7309 58.9946 51.3593 57.3687Z" fill="#BF4040"/>
</svg>
