<svg width="480" height="96" viewBox="0 0 480 96" fill="none" xmlns="http://www.w3.org/2000/svg">
<path fill-rule="evenodd" clip-rule="evenodd" d="M62.9999 54C74.5979 54 83.9999 44.598 83.9999 33C83.9999 21.402 74.5979 12 62.9999 12C51.402 12 41.9999 21.402 41.9999 33C41.9999 36.2405 42.7339 39.3096 44.0447 42.0501C44.3586 42.017 44.6773 42 44.9999 42C49.9705 42 53.9999 46.0294 53.9999 51C53.9999 51.3227 53.983 51.6413 53.9499 51.9552C56.6903 53.266 59.7594 54 62.9999 54ZM51.3592 57.3687C54.8839 59.0554 58.8316 60 62.9999 60C77.9116 60 89.9999 47.9117 89.9999 33C89.9999 18.0883 77.9116 6 62.9999 6C48.0883 6 35.9999 18.0883 35.9999 33C35.9999 37.1683 36.9445 41.116 38.6313 44.6407C37.0054 46.2691 35.9999 48.5171 35.9999 51C35.9999 52.3894 36.3148 53.7053 36.8771 54.8802L35.1213 56.636C33.9497 57.8076 32.0502 57.8076 30.8786 56.636L21.3639 47.1213C17.8492 43.6066 12.1507 43.6066 8.63599 47.1213L8.12127 47.636C4.60655 51.1508 4.60655 56.8492 8.12127 60.364L23.1213 75.364C23.6839 75.9266 23.9999 76.6896 23.9999 77.4853V87V90H29.9999V87V77.4853C29.9999 75.0983 29.0517 72.8091 27.3639 71.1213L12.3639 56.1213C11.1923 54.9497 11.1923 53.0503 12.3639 51.8787L12.8786 51.364C14.0502 50.1924 15.9497 50.1924 17.1213 51.364L26.636 60.8787C30.1507 64.3934 35.8492 64.3934 39.3639 60.8787L41.1197 59.1229C42.2946 59.6851 43.6105 60 44.9999 60C47.4828 60 49.7309 58.9946 51.3592 57.3687Z" fill="#BF4040"/>
<path fill-rule="evenodd" clip-rule="evenodd" d="M180 24L168 36H156V24L168 12L162 6C148.745 6 138 16.7452 138 30C138 33.5216 138.758 36.8661 140.121 39.879L134.815 45.1849C132.547 43.9793 129.668 44.3319 127.757 46.2426L103.243 70.7574C100.899 73.1005 100.899 76.8995 103.243 79.2426L112.757 88.7574C115.1 91.1005 118.899 91.1005 121.243 88.7574L145.757 64.2426C147.668 62.3319 148.021 59.4529 146.815 57.1849L152.121 51.879C155.134 53.2415 158.478 54 162 54C175.255 54 186 43.2548 186 30L180 24Z" fill="#D68D1F"/>
<path fill-rule="evenodd" clip-rule="evenodd" d="M198 34.7574C198 37.4301 201.231 38.7686 203.121 36.8787L210 30L222 42L234 30L222 18L228.879 11.1213C230.769 9.23143 229.43 6 226.757 6L198 6L198 34.7574ZM282 61.2426C282 58.5699 278.769 57.2314 276.879 59.1213L270 66L258 54L246 66L258 78L251.121 84.8787C249.231 86.7686 250.57 90 253.243 90H282V61.2426ZM251.121 11.1213C249.231 9.23143 250.57 6.00001 253.243 6.00001L282 6L282 34.7574C282 37.4301 278.769 38.7686 276.879 36.8787L270 30L258 42L246 30L258 18L251.121 11.1213ZM226.757 90C229.43 90 230.769 86.7686 228.879 84.8787L222 78L234 66L222 54L210 66L203.121 59.1213C201.231 57.2314 198 58.5699 198 61.2426L198 90L226.757 90Z" fill="#169C44"/>
<path fill-rule="evenodd" clip-rule="evenodd" d="M357.728 6H378V26.2721C378 28.659 377.052 30.9482 375.364 32.636L344.636 63.364C342.948 65.0518 340.659 66 338.272 66H330L318 54V45.7279C318 43.341 318.948 41.0518 320.636 39.364L351.364 8.63604C353.052 6.94821 355.341 6 357.728 6ZM360 33C360 37.9706 355.971 42 351 42C346.029 42 342 37.9706 342 33C342 28.0294 346.029 24 351 24C355.971 24 360 28.0294 360 33ZM327.515 24H315.728C313.341 24 311.052 24.9482 309.364 26.636L294 42H312.471C313.133 39.4189 314.477 37.0376 316.393 35.1213L327.515 24ZM342 71.5294V90L357.364 74.636C359.052 72.9482 360 70.659 360 68.2721V56.4853L348.879 67.6066C346.962 69.5228 344.581 70.8671 342 71.5294ZM300 72C300 65.3726 305.373 60 312 60C318.627 60 324 65.3726 324 72C324 78.6274 318.627 84 312 84H300V72Z" fill="#006FB3"/>
<path fill-rule="evenodd" clip-rule="evenodd" d="M451.243 13.2427L472.243 34.2426C473.368 35.3679 474 36.894 474 38.4853V57.5147C474 59.106 473.368 60.6322 472.243 61.7574L457.243 76.7574C454.899 79.1005 451.101 79.1005 448.757 76.7574L427.757 55.7574C426.632 54.6322 426 53.106 426 51.5147V32.4853C426 30.894 426.632 29.3679 427.757 28.2427L442.757 13.2426C445.101 10.8995 448.899 10.8995 451.243 13.2427ZM437.121 30.8787L435 28.7574L430.757 33L432.879 35.1213L450 52.2427V69V72H456V69V52.2427L467.121 41.1213L469.243 39L465 34.7574L462.879 36.8787L453 46.7574L437.121 30.8787Z" fill="#AF38CD"/>
<path opacity="0.5" fill-rule="evenodd" clip-rule="evenodd" d="M396 30H420V36H396V30ZM384 42H420V48H384V42ZM420 54H390V60H420V54Z" fill="#AF38CD"/>
</svg>
