<svg width="96" height="96" viewBox="0 0 96 96" fill="none" xmlns="http://www.w3.org/2000/svg">
<path fill-rule="evenodd" clip-rule="evenodd" d="M84 24L72 36H60V24L72 12L66 6C52.7452 6 42 16.7452 42 30C42 33.5216 42.7585 36.8661 44.121 39.879L38.8151 45.1849C36.547 43.9793 33.6681 44.3319 31.7574 46.2426L7.24264 70.7574C4.89949 73.1005 4.89949 76.8995 7.24263 79.2426L16.7574 88.7574C19.1005 91.1005 22.8995 91.1005 25.2426 88.7574L49.7574 64.2426C51.6681 62.3319 52.0207 59.4529 50.8151 57.1849L56.121 51.879C59.1339 53.2415 62.4784 54 66 54C79.2548 54 90 43.2548 90 30L84 24Z" fill="#DF9320"/>
</svg>
