<svg width="96" height="96" viewBox="0 0 96 96" fill="none" xmlns="http://www.w3.org/2000/svg">
<path fill-rule="evenodd" clip-rule="evenodd" d="M6 34.7574C6 37.4301 9.23143 38.7686 11.1213 36.8787L18 30L30 42L42 30L30 18L36.8787 11.1213C38.7686 9.23143 37.4301 6 34.7574 6H6L6 34.7574ZM90 61.2426C90 58.5699 86.7686 57.2314 84.8787 59.1213L78 66L66 54L54 66L66 78L59.1213 84.8787C57.2314 86.7686 58.5699 90 61.2426 90H90V61.2426ZM59.1213 11.1213C57.2314 9.23143 58.5699 6.00001 61.2426 6.00001L90 6L90 34.7574C90 37.4301 86.7686 38.7686 84.8787 36.8787L78 30L66 42L54 30L66 18L59.1213 11.1213ZM34.7574 90C37.4301 90 38.7686 86.7686 36.8787 84.8787L30 78L42 66L30 54L18 66L11.1213 59.1213C9.23142 57.2314 5.99999 58.5699 5.99999 61.2426V90L34.7574 90Z" fill="#169C44"/>
</svg>
