<svg width="96" height="96" viewBox="0 0 96 96" fill="none" xmlns="http://www.w3.org/2000/svg">
<path fill-rule="evenodd" clip-rule="evenodd" d="M67.2426 13.2425L88.2426 34.2425C89.3679 35.3677 90 36.8938 90 38.4851V57.5145C90 59.1058 89.3679 60.632 88.2426 61.7572L73.2426 76.7572C70.8995 79.1003 67.1005 79.1003 64.7574 76.7572L43.7574 55.7572C42.6321 54.632 42 53.1058 42 51.5145V32.4851C42 30.8938 42.6321 29.3677 43.7574 28.2425L58.7574 13.2425C61.1005 10.8993 64.8995 10.8993 67.2426 13.2425ZM53.1213 30.8785L51 28.7572L46.7574 32.9998L48.8787 35.1211L66 52.2425V68.9998V71.9998H72V68.9998V52.2425L83.1213 41.1211L85.2426 38.9998L81 34.7572L78.8787 36.8785L69 46.7572L53.1213 30.8785Z" fill="#AF38CD"/>
<path opacity="0.5" fill-rule="evenodd" clip-rule="evenodd" d="M12 30H36V36H12V30ZM0 42H36V48H0V42ZM36 54H6V60H36V54Z" fill="#AF38CD"/>
</svg>
