<svg width="96" height="96" viewBox="0 0 96 96" fill="none" xmlns="http://www.w3.org/2000/svg">
<path fill-rule="evenodd" clip-rule="evenodd" d="M69.7279 6H90V26.2721C90 28.659 89.0518 30.9482 87.364 32.636L56.636 63.364C54.9482 65.0518 52.659 66 50.2721 66H42L30 54V45.7279C30 43.341 30.9482 41.0518 32.636 39.364L63.364 8.63604C65.0518 6.94821 67.341 6 69.7279 6ZM72 33C72 37.9706 67.9706 42 63 42C58.0294 42 54 37.9706 54 33C54 28.0294 58.0294 24 63 24C67.9706 24 72 28.0294 72 33ZM21.364 26.636L5.99998 42H24L42 24L27.7279 24C25.341 24 23.0518 24.9482 21.364 26.636ZM54 72L72 54V68.2721C72 70.659 71.0518 72.9482 69.364 74.636L54 90V72ZM12 72C12 65.3726 17.3726 60 24 60C30.6274 60 36 65.3726 36 72C36 78.6274 30.6274 84 24 84H12V72Z" fill="#006FB3"/>
</svg>
